<?xml version="1.0" encoding="UTF-8"?>
<svg id="Layer_1" xmlns="http://www.w3.org/2000/svg" version="1.1" viewBox="0 0 459.73 173.53">
  <!-- Generator: Adobe Illustrator 29.8.3, SVG Export Plug-In . SVG Version: 2.1.1 Build 3)  -->
  <defs>
    <style>
      .st0 {
        fill: #181818;
      }

      .st1 {
        fill: #681f2a;
      }

      .st2 {
        display: none;
        fill: #f4cdcb;
      }
    </style>
  </defs>
  <g id="Layer_11">
    <path class="st2" d="M167.32,7c5.4-2.81,15.92-9.8,21.99-8.74,5.01.87,8.25,12.86,8.03,17.53-.81,18.9-12.39,19.38-27.51,16.81,1.42,4.21,4.85,7.08,6.78,10.95,5.23,10.37,7.74,21.9,7.31,33.51-.21,8.23-1.36,17.04-1.4,25.57,0,5.59,1.77,13.82-.19,18.83-.73,1.77-3.77,3.54-4.87,5.64s-1.4,8.21-4.25,4.81c-2-3.85-3.72-7.83-5.15-11.93-6.12-18.05,2.51-32.68-1.49-50.89-3.54-16.12-14.86-26.54-17.25-42.91-3.03,4.02-4.49,8.97-7.08,13.29-4.72,7.38-10.05,14.36-15.92,20.86-7.38,8.03-16.61,12.39-25.25,18.69-.32,4.02-4.16,19.25-2.8,21.75.96,1.77,8.49,3.89,10.72,4.51,10.9,2.99,22.58,4.65,33.81,3.1,2.05-.3,6.35-2.9,7.08,0,.39,1.42-2.78,12.69-3.22,15.27-2.18,12.6-4.55,23.75-7.08,36.17-1.88,8.99,1.22,17.48-10.28,17.07-8.85-.34-23.32-2.72-31.51-5.96-3.8-1.5-7.34-4.41-11.36-5.31-.27,5.73,2,8.44,6.05,11.84,18.01,15.11,48.29,17.36,70.12,10.62,2.72-.85,7.22-2.74,8.37-5.75,1.77-5.96,3.14-12.03,4.09-18.17,1.33-7.38,1.57-15.55,3.13-22.77.94-4.32,2.78-2.97,2.74.39,0,5.49-2.03,13.5-2.78,19.3-.94,7.17-1.15,13.89-3.04,21.23-1.36,5.31-5.03,7.91-9.89,9.4-24.38,7.5-49.26,6.79-71.27-6.74-4.9-3.01-11.25-6.97-11.96-13.34-.97-8.6,2.26-27.09,3.91-36.17,3.27-17.92,9.78-35.23,12.28-53.28l-5.59,5.84c-3.73,1.86-5.7,5.73-8.32,8.28-3.54,3.45-3.11-.46-3.08-3.04s-.25-9.18.11-11.04c1.08-5.86,14.49-7.48,18.88-10.44,2.9-9.41,6.14-18.95,11.64-27.09,5.03-7.45,12.39-13.29,18.83-19.3-7.91-2.72-15.38-8.85-15.09-18.24.57-19.98,18.84-19.46,28.82-6.81,1.5-15.92,2.03-32.24,6-47.77,1.86-.28,2.11-2.35,2.95-2.94,2.42-1.66,10-.94,12.83-.23,4.78,1.19,13.01,6.9,9.98,12.85-.51,1.03-2.81,1.38-2.87,1.77l-5.96,43v-.02h0ZM155.04-43.8c3.77,1.2,11.02,1.56,15.34,2.16,1.47.21,1.26-1.88,0-3.11-5.04-5.31-12.16-.71-18.12-1.52.16.96,2.18,2.26,2.78,2.48h0ZM160.65,10.63c0,3.36-1.5,7.82-1.61,11.34,4.37,1.5,28.31-.97,29.97,2.11,1.15,2.25-3.95,2.03-5.13,2-7.4-.23-15.02-1.56-22.45-1.66-.3.97,1.03,1.1,1.77,1.42,4.62,2.28,20.31,4.64,24.95,2.72,6.44-2.64,5.96-21.23,1.77-24.77-3.01-2.53-13.2,1.77-16.72,3.43-1.77.76-11.34,7.08-12.17,5.87,0-1.88,1.22-2.58,2.53-3.54.34-.53-1.26,0-1.2-1.5.14-4.53,1.89-9.86,2.07-14.53l6.14-28.89c-6.19-1.49-12.39-2.49-17.84-6.03-2.95,11.91-3.24,24.13-4.11,36.26-.21,3.15-2.83,11.7,1.33,13.08.76.25,3.89-2.14,6.16-1.66,1.45.37,4.55,2.72,4.6,4.37h-.05v-.02h-.01ZM144.85,16.47c1.49-4.25,3.91-4.14.87-8.32-7.98-11.01-23.83-20.97-25.59.62,8.6-.41,16.86,4.65,24.77,7.7,0,0-.05,0-.05,0ZM155.93,10.31c-1.32-.15-2.66-.04-3.95.32-1.23,2.18-2.28,4.46-3.15,6.81-.23,2.05,2.92,2.11,3.89,3.63,1.29-1.22,3.72-10.09,3.26-10.72,0,0-.05-.04-.05-.04ZM139.61,19.93l-16.08-6.46c1.95,3.86,10.21,7.38,14.16,7.41.53.07,2.05-.05,1.98-.96h-.06ZM147.24,23.81c-2.35.85-6.64.87-8.62,1.77-4.37,1.91-10.28,19.87-12.95,24.88-1.93,3.54-4.9,6.44-6.71,10.09,12.7-8.92,20.79-23.34,28.33-36.73h-.05ZM166.24,32.28c-.8-.88-4.78-2.41-6.55-3.79-1.24-.96-3.45-4.55-3.41-.41,0,1.77,4.42,11.93,5.66,13.66,3.26,4.58,9.82,7.5,12.93,12.6-.44-2.31-1.06-4.59-1.88-6.79-.64-1.93-6.02-14.49-6.71-15.27h-.05.01ZM111.91,65.58c1.77-1.38,7.33-10.01,8.6-12.39,4.55-8.48,6.55-18.44,12.05-26.54-11.63,12-23.76,24.24-26.28,41.86,1.56-1.27,4.35-1.91,5.68-2.94h-.05ZM174.05,127.85c.11-3.08,4.34-6.56,4.69-8.85.46-2.76-1.19-11.68-1.15-15.69,0-6.14,1.1-12.39,1.08-18.58,0-14.67-4.02-31.37-17.57-38.68,4.51,7.61,9.24,15.61,10.3,24.77,1.77,14.53-5.98,29.23-2.76,43.17,1.17,4.85,3.01,9.51,5.47,13.85h-.06ZM96.65,79.79c-1.65.69-11.43,2.16-11.84,2.6-.76.83.27,7.86-.76,9.63,0,0,12.6-12.23,12.6-12.23ZM144.3,113.13c-16.27,2.64-32.94-.7-46.92-9.41l-7.08,35.48c7.54-1.68,9.02,8.99,15.13,7.2,2.42-.71,6.41-5.45,9.01-3.03,1.13,1.04,1.13,3.15,3.11,3.75s6.51-3.34,7.45.11-7.57,5.31-10.62,4.12c-1.2-.59-2.13-1.6-2.64-2.83-1.63.27-4.6,2.64-6.85,2.9-10.37,1.29-6-9.52-15-9.48-.62,6.02-2.76,11.73-2.41,17.8,6.55,3.13,13.35,5.72,20.31,7.77,3.4.92,24.08,5.86,25.39,4.26,2.41-19.76,6.1-39.35,11.04-58.64h.08Z"/>
    <path class="st2" d="M111.85,115.06c1.88,2.67-1.77,8.19-3.36,10.62,2.25,1.26,3.43,2.9,6.26,1.65,3.86-1.77.81-9.52,5.2-8.44,3.98.96.8,5.84.85,7.41,0,1.91,4.48,4.67,6.26,4.8,2.12.16,8.12-5.79,7.08,0-.51,3.04-5.8,4.07-8.39,4-4.62-.12-7.48-5.82-7.98-5.87s-3.95,3.64-8.72,1.24c-1.15-.58-2.14-2.58-2.64-2.69-1.15-.27-4.44,3.31-7.82.44-2.41-2.03-3.54-8.67-1.57-11.08.44-.55,1.24-.63,1.79-.19.29.23.46.58.47.95.14,1.96-3.06,6.46,1.5,8.63,5.06,2.42,3.96-5.04,4.39-7.17.64-2.95,4.48-7.41,6.67-4.3,0,0,.01,0,.01,0Z"/>
    <path class="st1" d="M111.19,38.81l2.41,4.68.86,3.12c-.64,13.12-.12,24.9-4.69,37.49-1.57,4.34-3.81,7.8-5.43,11.85-1.49,4.31-2.7,8.7-3.63,13.16-.11,3.45,4.61,8.57,5.52,12.15.58,4.04.44,8.16-.4,12.15-1.58,4.21-3.69,2.93-6.22,4.98s-4.19,3.65-1.98,6.23c.66.78,6.68,6.89,7.15,7.18s1.31-.14,1.81,0c1.58.44,6.86,11.6,10.4,13.86,3.83,2.43,14.49,2.29,16.61,4.11,1.58,1.37-1.76,1.32-2.15,1.48-2.86,1.26-5.91,2.04-9.03,2.28-4.42.02-5.67-1.77-9.18-2.97-3.87-1.29-8.8-1.79-12.12-4.08-1.88-1.31-7.05-7.58-8.63-9.67-2.59-3.43-5.37-7.12-3.94-11.53,2.08-6.29,1.63-6.09,2.19-12.33.51-5.58.99-11.7,2.05-17.17,1.63-8.64,5.1-16.31,5.86-25.19.58-6.38-.42-13.38.59-19.66,1.99-12.29,13.31-26.83-.14-36.67-10.04,4.5-10.02,16.36-15.5,24.6-1.26,1.9-3.33,3.51-4.61,5.64-2.23,3.69-3.34,8.28-5.16,12.16-5.34,11.36-14.53,22.34-22.15,32.31-4.9,6.38-17.32,13.03-25.28,14.06-7.43.92-17.78,1.23-22.8-5.02-3.03-3.74-5.94-9.27-.75-12.7,3.47-2.31,2.94,3.11,3.69,4.63,1.45,2.97,7.81,3.45,10.8,3.23,11.97-.86,26.02-12.58,33.39-21.54,5.48-6.64,8.01-14.43,12.34-21.67,1.87-3.13,4.56-6.07,6.5-9.16,5.66-9.01,9.75-18.33,18.63-24.78-12.01,1.98-30.17,4.1-39.19-5.9-6.35-6.94-10.57-21.52-1.75-28.23,4.57-3.44,17.62-1.53,22.71.62,10.42,4.39,14.04,11.38,22.45,17.32,1.69,1.19,7.62,5.24,9.28,4.98.85-.14.93-2.04,2.03-2.19.63-.09,1.17.93,1.85,1.18,6.04,2.17,26.56-15.2,33.43-17.9,19.09-7.44,30.12,11.86,15.06,25.2-11.19,9.67-29.02,12.05-42.91,7.69l.03.02h0ZM105.91,32.57c.64.9,1.43,1.68,2.34,2.31,3.89,1.38,18.91-1.04,23.37-2.35,5.87-1.62,15.99-6.3,18.83-11.97,1.2-2.3,1.6-11.78-.98-12.71-1.91-.69-7.97,1.09-9.95,1.99-9.23,4.27-16.79,11.95-26.91,15.87-1.07.41-3.57.61-3.89.82s-1.11,3.24-1.5,4.17c-.37.68-1.34,1.42-1.3,1.86h-.01ZM157.33,15.64c-.2-.74-2.14-5.33-2.8-5.09-.39,6.82-.19,11.72-5.37,16.93-8.04,8.08-21.67,8.8-32.25,10.3,8.73,1.86,17.82.87,25.94-2.82,6.82-3.4,16.82-10.53,14.48-19.32ZM100.97,26.62c-16.95-4.06-23.63-20.84-41.8-22.45-6.84-.6-13.88,3.22-12.16,10.91.53-2.7,5.79-9.47,8.05-5.01.63,1.27-7.01,7.77-3.67,13.24,4.91,8,21.75,7.32,30.06,6.17l19.52-2.86ZM58.5,32.49c8.24,3.44,17.25,3.16,25.81,1.43,2.59-.47,5.13-1.14,7.62-2,.7-.29,1.48-.16,1.72-1.1-7.15,1.62-14.43,2.64-21.75,3.04l-13.39-1.37s0,0-.01,0ZM111.25,48.17c-.06-.27-1.27-2.99-1.39-3.12-1.83-2.21-.86,1.66-.84,2.14.87,11.53-5.09,20.75-5.5,32.15l-.39,10.02c3.32-6.56,5.68-13.56,7-20.79.35-2.62,1.56-18.64,1.1-20.37v-.03s.02,0,.02,0ZM72.82,70.79c.16.49-4.27,7.61-4.69,8.99.75.52.96-.8,1.28-1.33,1.84-3.22,3.45-6.62,5.16-9.91,2.39-4.58,5.61-8.55,7.69-12.53s2.76-10.32,4.83-14.73c.51-.88,1.09-1.71,1.75-2.48.27-.51,1.25-1.4.4-1.71-8.64,7.11-11.91,17.39-17.32,26.7-10.28,17.68-23.04,38.82-41.21,49.23-6.73,3.6-14.63,4.32-21.89,1.99l-5.41-4.11c-.18,2.19,2.53,4.75,4.22,5.83,3.9,2.56,10.36,3,14.84,2.07,2.31-.47,11.6-4.85,12.56-4.35.44.23.88,1,.76,1.27-.48.93-11.61,4.44-13.48,4.97-.18.34.31.56.55.58,2.64-.2,5.24-.76,7.73-1.67,4.3-1.63,14.47-7.11,17.4-10.36,3.32-3.72,5.94-8.54,9.04-12.44l-16.8,16.39c-1.41.61-1.73-.99-1.01-1.89,8.69-9.72,18.19-18.68,25.21-29.78,2.29-3.63,4.31-7.99,6.66-11.67.35.31,1.68.78,1.74.94h0ZM94.37,136.86c2.26-1.73,8.03-7.92,8.6-10.38s-5.35-8.72-6.42-11.33c-.92.41-2.56,17.67-2.59,19.78,0,.38-.11,2.03.41,1.94h0ZM98.79,156.87c-3.19-3.28-4.93-7.69-7.04-11.67-3.16,1.46,4.37,9.97,5.57,11.2.44.41,1.16,1.33,1.48.48h-.01ZM108.23,161.79c-1.33-.93-1.13-2.53-1.85-3.74-2.09-3.45-6.58-6.57-9.99-8.71l3.97,6.08c1.95,2.14,4.07,4.11,6.35,5.89.46.33,1.19,1.33,1.51.48h0ZM16.9,121.07l-9.73-2.24c1.79,1.02,3.72,1.75,5.74,2.16,1,.25,3.14.66,4,.09h-.01Z"/>
  </g>
  <g id="Layer_2">
    <g>
      <path class="st0" d="M261.34,117.54c.7-.82,1.6-1.88,2.68-3.17s2.1-2.52,3.04-3.7c.53-.35,1.06-.44,1.58-.26.53.18.67.41.44.7-1.76,2.64-3.05,4.99-3.87,7.04-.82,2.05-1.23,3.49-1.23,4.31,0,1.47.67,2.2,2.02,2.2,2.05,0,5.78-1.85,11.18-5.54.12-.12.4-.32.84-.62.44-.29.75-.44.92-.44s.26.12.26.35c0,.35-.44.82-1.32,1.41-7.27,4.87-12.14,7.3-14.61,7.3-1.64,0-2.46-.94-2.46-2.82,0-.59.07-1.22.22-1.89s.32-1.28.53-1.8c.21-.53.38-.97.53-1.32s.22-.5.22-.44c0-.23-.09-.35-.26-.35-.41.47-1.06,1.14-1.94,2.02s-1.82,1.76-2.82,2.64-2,1.63-2.99,2.24c-1,.62-1.79.89-2.38.84-.7-.06-1.14-.31-1.32-.75-.18-.44-.18-.98,0-1.63.18-.65.47-1.35.88-2.11s.85-1.5,1.32-2.2c.12-.18.32-.51.62-1.01.29-.5.57-.98.84-1.45.26-.47.45-.85.57-1.14s.06-.35-.18-.18c-.06-.12-.28.04-.66.48s-.9,1.01-1.54,1.72c-.65.7-1.39,1.45-2.24,2.24-.85.79-1.8,1.51-2.86,2.16-.76.47-1.56.95-2.38,1.45s-1.63.94-2.42,1.32-1.58.69-2.38.92c-.79.23-1.57.32-2.33.26-.82-.06-1.57-.25-2.24-.57s-1.01-1.04-1.01-2.16c0-.64.16-1.2.48-1.67.32-.47.66-.7,1.01-.7.29,0,.53.15.7.44.18.29.38.63.62,1.01.23.38.5.72.79,1.01s.7.44,1.23.44h.53c.47,0,1.61-.41,3.43-1.23,3.23-1.52,5.94-3.4,8.14-5.63,2.2-2.23,4.18-4.49,5.94-6.78.88-.88,1.52-1.32,1.94-1.32.18,0,.4.07.66.22s.44.4.53.75,0,.84-.26,1.45c-.26.62-.78,1.39-1.54,2.33-.47.47-1.01,1.17-1.63,2.11s-1.23,1.94-1.85,2.99c-.62,1.06-1.17,2.05-1.67,2.99s-.84,1.61-1.01,2.02c.06.47.45.5,1.19.09.73-.41,1.58-1,2.55-1.76s1.92-1.6,2.86-2.51c.94-.91,1.64-1.69,2.11-2.33v.03h0Z"/>
      <path class="st0" d="M299.01,119.56c0,.41-1.2,1.38-3.61,2.9-5.93,3.76-10.18,5.63-12.76,5.63-3.81,0-5.72-2.23-5.72-6.69,0-3.29,1.6-6.58,4.8-9.9,3.2-3.31,6.23-4.97,9.11-4.97.88,0,1.32.41,1.32,1.23,0,2-1.73,4.81-5.19,8.45-2.76,2.88-5.02,4.84-6.78,5.9.18,2.58,1.41,3.87,3.7,3.87,2.17,0,5.81-1.47,10.91-4.4.41-.23,1.55-.94,3.43-2.11.18-.18.35-.26.53-.26s.26.12.26.35ZM289.41,109.44c0-.7-.21-1.06-.62-1.06-1.47,0-3.26,1.47-5.37,4.4s-3.2,5.57-3.26,7.92c1.11-.35,2.87-1.88,5.28-4.58,2.64-2.93,3.96-5.16,3.96-6.69h.01Z"/>
      <path class="st0" d="M324.61,119.56c0,.82-2.11,2.35-6.34,4.58-4.22,2.23-9.36,3.34-15.4,3.34-3.46,0-5.34-.35-5.63-1.06,0-.41.32-.62.97-.62.88.18,1.44.26,1.67.26,2.99,0,6.19-1.52,9.59-4.58,3.23-2.87,4.84-5.34,4.84-7.39,0-.88-.56-1.32-1.67-1.32-5.52,0-11.53,5.22-18.04,15.66-.53.82-3.74,7.05-9.64,18.7-5.9,11.64-9.02,17.88-9.37,18.7-.41,1-.94,1.5-1.58,1.5-.23,0-.41-.03-.53-.09-.35-.12-.53-.47-.53-1.06,0-2.11,13.2-26.75,39.6-73.92.47-.82.91-1.23,1.32-1.23.06,0,.18.06.35.18.18.12.26.35.26.7,0,.65-.18,1.14-.53,1.5-.06.18-2.46,4.52-7.22,13.02-4.52,8.21-6.78,12.58-6.78,13.11,0,.06.03.12.09.18.06-.12.26-.35.62-.7,1.41-1.7,3.34-3.43,5.81-5.19,3.28-2.23,6.16-3.34,8.62-3.34,1.82,0,2.73.7,2.73,2.11,0,4.28-3.43,8.48-10.3,12.58,5.22,0,10.65-1.91,16.28-5.72.18-.18.35-.26.53-.26s.26.12.26.35h.02,0Z"/>
      <path class="st0" d="M351.28,119.56c0,1.06-2.67,3.11-8.01,6.16-2.35,1.35-4.69,2.02-7.04,2.02-2.76,0-4.14-1.17-4.14-3.52,0-1.47,1.03-3.34,3.08-5.63,1.76-1.94,2.73-2.9,2.9-2.9-1.06,0-1.88-.62-2.46-1.85-.59-1.23-1.03-1.85-1.32-1.85-.24,0-.56.21-.97.62-.82,1.23-2.41,2.79-4.75,4.66-1.23,1-2.96,2.26-5.19,3.78-.18.18-.35.26-.53.26-.12,0-.18-.32-.18-.97.29-.18,1.35-.94,3.17-2.29,4.11-3.05,7.42-6.48,9.94-10.3.47-.76,1.08-1.14,1.85-1.14.35,0,.53.18.53.53,0,.24-.12.75-.35,1.54-.24.79-.35,1.36-.35,1.72,0,1.06.57,2,1.72,2.82,1.14.82,1.72,1.38,1.72,1.67,0,.53-.9,1.6-2.68,3.21-1.79,1.61-2.68,3.12-2.68,4.53,0,2.05.94,3.08,2.82,3.08,1.76,0,4.08-.88,6.95-2.64,1.7-1.17,3.43-2.38,5.19-3.61.18-.18.35-.26.53-.26s.26.12.26.35h-.01Z"/>
    </g>
    <g>
      <path class="st0" d="M151.51,75.97c-.06.15-.14.21-.24.2s-.13-.11-.07-.29c.15-.59.22-1.16.22-1.72,0-1.35-.32-2.72-.97-4.11s-1.5-2.54-2.55-3.45c-1.06-.91-2.17-1.36-3.34-1.36-3.46,0-5.19,1.98-5.19,5.94,0,2.17.5,4.19,1.5,6.05s2.29,3.34,3.89,4.42c1.6,1.09,3.22,1.63,4.86,1.63,2.11,0,3.72-.67,4.84-2.02.12-.12.2-.14.26-.07s.06.15,0,.24c-2.32,2.9-5.38,4.36-9.2,4.36-1.88,0-3.61-.43-5.19-1.28s-2.85-2.06-3.81-3.63c-.95-1.57-1.43-3.38-1.43-5.43s.51-3.84,1.52-5.54c1.01-1.7,2.38-3.05,4.11-4.05s3.61-1.5,5.63-1.5c1.41,0,2.73.19,3.96.57,1.23.38,2.18.87,2.84,1.47s.92,1.2.77,1.78l-2.42,7.79h0Z"/>
      <path class="st0" d="M178.71,77.38c.09,0,.13.07.13.22,0,2.23-.48,4.14-1.43,5.72-.96,1.58-2.19,2.38-3.72,2.38-1.12,0-2.05-.37-2.82-1.12-.76-.75-1.19-1.87-1.28-3.37-.7,1.47-1.64,2.6-2.79,3.39-1.16.79-2.43,1.19-3.81,1.19-2.32,0-4.03-.65-5.15-1.96s-1.67-2.82-1.67-4.55.77-3.06,2.31-4.09,3.47-1.54,5.79-1.54c.79,0,1.68.07,2.66.22.98.15,1.87.34,2.66.57v-1.94c0-4.52-1.97-6.78-5.9-6.78-1.61,0-2.99.53-4.11,1.58-1.13,1.06-1.69,2.64-1.69,4.75,0,.12-.03.21-.09.26s-.12.09-.18.09c-.12,0-.18-.12-.18-.35,0-1.64.41-3.04,1.23-4.2.82-1.16,1.88-2.03,3.17-2.62,1.29-.59,2.65-.88,4.09-.88,5.81,0,8.71,2.71,8.71,8.14v7.22c0,1.94.5,2.9,1.5,2.9s1.6-.43,1.89-1.3c.29-.86.47-2.1.53-3.72,0-.15.04-.22.13-.22h.02,0ZM169.6,78.04v-.26c-.32-1.06-.94-1.9-1.85-2.53s-1.91-.95-2.99-.95c-2.9,0-4.36,1.12-4.36,3.34,0,1.5.42,2.81,1.28,3.94.85,1.13,2.05,1.69,3.61,1.69,2.87,0,4.31-1.74,4.31-5.24h0Z"/>
      <path class="st0" d="M207.31,84.99c0,.12-.07.18-.22.18-.47-.03-1.38-.04-2.73-.04h-5.28c-1.35,0-2.26.01-2.73.04-.15,0-.22-.06-.22-.18s.07-.18.22-.18c.88,0,1.53-.25,1.96-.75.42-.5.64-1.33.64-2.51,0-.44,0-.78-.04-1.01l-.97-11.66c-.03-.35-.12-.53-.26-.53-.09,0-.16.04-.22.13s-.12.22-.18.4l-6.2,15.71c-.12.32-.28.48-.48.48-.26,0-.46-.16-.57-.48l-6.16-15.88c-.09-.23-.18-.35-.26-.35h-.09l.31,1.14-.31-1.1c-.09.03-.13.13-.13.31l-1.06,11.84c-.03.26-.04.63-.04,1.1,0,1.14.21,1.96.62,2.44.41.48,1.06.73,1.94.73.15,0,.22.06.22.18s-.07.18-.22.18c-.44-.03-1.35-.04-2.73-.04h-.53c-1.38,0-2.29.01-2.73.04-.15,0-.22-.06-.22-.18s.07-.18.22-.18c.97,0,1.69-.31,2.18-.95.48-.63.8-1.74.95-3.32l1.19-13.07c-.29-.76-.66-1.3-1.1-1.63-.44-.32-1-.48-1.67-.48-.15,0-.22-.06-.22-.18s.07-.18.22-.18l2.6.04h4.22c.41,0,.67.16.79.48l4.88,12.06c.09.21.19.31.31.31.15,0,.23-.1.26-.31l4.75-12.1c.06-.18.13-.29.22-.35s.22-.09.4-.09h3.87l2.77-.04c.15,0,.22.06.22.18s-.07.18-.22.18c-.88,0-1.53.24-1.96.73-.42.48-.64,1.3-.64,2.44,0,.47,0,.84.04,1.1l1.06,10.91c.15,1.58.46,2.69.95,3.32.48.63,1.21.95,2.18.95.15,0,.22.06.22.18h-.02Z"/>
      <path class="st0" d="M220.29,73.64c6.01-.09,9.02,1.75,9.02,5.5,0,1.94-.7,3.42-2.11,4.44-1.41,1.03-3.51,1.54-6.29,1.54h-9.24c-1.38,0-2.3.01-2.77.04-.15,0-.22-.06-.22-.18s.07-.18.22-.18c.97,0,1.69-.32,2.16-.97s.7-1.75.7-3.3v-10.91c0-1.55-.24-2.65-.7-3.3-.47-.65-1.19-.97-2.16-.97-.15,0-.22-.06-.22-.18s.07-.18.22-.18l2.77.04h5.24l2.73-.04c.15,0,.22.06.22.18s-.07.18-.22.18c-.97,0-1.68.32-2.13.97-.46.65-.68,1.75-.68,3.3v3.56c0,.32.13.48.4.48l3.08-.04s-.02.02-.02.02ZM219.58,84.77c1.41-.03,2.5-.54,3.28-1.54s1.17-2.33,1.17-4-.4-2.93-1.19-3.85c-.79-.92-1.94-1.37-3.43-1.34l-2.2.04c-.26,0-.4.16-.4.48v9.06c0,.47.06.79.18.95.12.16.35.24.7.24l1.89-.04ZM239.95,84.99c0,.12-.07.18-.22.18-.47-.03-1.38-.04-2.73-.04h-5.24c-1.38,0-2.3.01-2.77.04-.12,0-.18-.06-.18-.18s.06-.18.18-.18c1,0,1.72-.32,2.18-.97.46-.65.68-1.75.68-3.3v-11.04c0-1.55-.23-2.65-.68-3.3-.46-.65-1.18-.97-2.18-.97-.12,0-.18-.06-.18-.18s.06-.18.18-.18l2.77.04h5.24l2.73-.04c.15,0,.22.06.22.18s-.07.18-.22.18c-.97,0-1.68.32-2.13.97-.46.65-.68,1.75-.68,3.3v11.04c0,1.56.23,2.66.68,3.3.45.65,1.17.97,2.13.97.15,0,.22.06.22.18Z"/>
      <path class="st0" d="M268.73,84.99c0,.12-.07.18-.22.18-.44-.03-1.35-.04-2.73-.04h-5.24c-1.38,0-2.29.01-2.73.04-.15,0-.22-.06-.22-.18s.07-.18.22-.18c.97,0,1.68-.32,2.13-.97s.68-1.75.68-3.3v-10.6l-10.52,10.56v.04c0,1.56.23,2.66.68,3.3.45.65,1.17.97,2.13.97.15,0,.22.06.22.18s-.07.18-.22.18c-.47-.03-1.38-.04-2.73-.04h-5.24c-1.38,0-2.3.01-2.77.04-.15,0-.22-.06-.22-.18s.07-.18.22-.18c.97,0,1.69-.32,2.16-.97s.7-1.75.7-3.3v-10.87c0-1.55-.24-2.66-.7-3.32-.47-.66-1.19-.99-2.16-.99-.15,0-.22-.06-.22-.18s.07-.18.22-.18c.94.06,1.86.09,2.77.09h5.24c.88,0,1.79-.03,2.73-.09.15,0,.22.06.22.18s-.07.18-.22.18c-.97,0-1.68.33-2.13.99-.46.66-.68,1.77-.68,3.32v10.25l10.52-10.56c-.03-1.47-.27-2.5-.73-3.1-.46-.6-1.15-.9-2.09-.9-.15,0-.22-.06-.22-.18s.07-.18.22-.18c.88.06,1.79.09,2.73.09h5.24c.94,0,1.85-.03,2.73-.09.15,0,.22.06.22.18s-.07.18-.22.18c-.97,0-1.68.33-2.13.99-.46.66-.68,1.77-.68,3.32v10.87c0,1.56.23,2.66.68,3.3.45.65,1.17.97,2.13.97.15,0,.22.06.22.18h.01ZM252.71,56.21c.26.09.4.24.4.44,0,1.11.31,2.14.92,3.08.62.94,1.51,1.41,2.68,1.41,1.29,0,2.21-.47,2.75-1.41s.81-1.95.81-3.04c0-.18.06-.26.18-.26.15,0,.22.09.22.26,0,1.47-.44,2.78-1.32,3.94s-2.26,1.74-4.14,1.74c-1.29,0-2.35-.3-3.19-.9s-1.45-1.34-1.85-2.22c-.4-.88-.59-1.76-.59-2.64,0-.18.1-.31.31-.4.21-.09.6-.13,1.19-.13.82,0,1.36.04,1.63.13h0Z"/>
      <path class="st0" d="M300.3,65.61c1.28.84,2.3,2.04,3.08,3.61s1.17,3.38,1.17,5.43c0,1.94-.45,3.76-1.34,5.48-.9,1.72-2.11,3.09-3.65,4.11s-3.22,1.54-5.04,1.54c-1.12,0-2.04-.15-2.77-.44-.73-.29-1.42-.66-2.07-1.1-.44-.29-.73-.44-.88-.44-.26,0-.4.25-.4.75v4.84c0,1.55.21,2.65.64,3.28.42.63,1.08.98,1.96,1.03.15,0,.22.05.22.15s-.07.15-.22.15c-1.23-.06-2.76-.09-4.58-.09-2.32,0-4.21.03-5.68.09-.15,0-.22-.06-.22-.18s.07-.18.22-.18c.88.03,1.53-.28,1.96-.92.43-.65.64-1.77.64-3.39v-18.66c0-1.11-.14-1.93-.42-2.44s-.8-.77-1.56-.77c-.15,0-.4.03-.75.09-.12.03-.18,0-.2-.11-.02-.1.02-.17.11-.2,1.38-.32,2.79-.75,4.25-1.28,1.45-.53,2.63-1.1,3.54-1.72.15-.09.27-.12.37-.09.1.03.14.12.11.26-.18,1.53-.28,2.82-.31,3.87,0,.35.02.68.07.99s.11.45.2.42c.79-1.58,1.77-2.87,2.95-3.87,1.17-1,2.64-1.5,4.4-1.5,1.52,0,2.93.42,4.2,1.25v.04h0ZM298.93,83.54c.84-1.06,1.25-2.6,1.25-4.62s-.34-3.86-1.01-5.68-1.58-3.29-2.71-4.4-2.35-1.67-3.67-1.67-2.38.56-3.19,1.67-1.21,2.61-1.21,4.49v2.95c0,2.55.58,4.66,1.74,6.34,1.16,1.67,2.73,2.51,4.73,2.51,1.88,0,3.23-.53,4.07-1.58h0Z"/>
      <path class="st0" d="M312.22,84.53c-1.63-.86-2.9-2.09-3.83-3.67-.92-1.58-1.39-3.39-1.39-5.41s.53-3.92,1.58-5.61c1.06-1.69,2.5-3.01,4.33-3.98s3.85-1.45,6.05-1.45c2.05,0,3.91.43,5.57,1.3s2.96,2.08,3.89,3.63c.94,1.56,1.41,3.33,1.41,5.32s-.54,3.94-1.61,5.65c-1.07,1.72-2.54,3.07-4.4,4.05s-3.91,1.47-6.14,1.47c-2.02,0-3.85-.43-5.48-1.3h.02ZM324.06,83.34c.95-.95,1.43-2.35,1.43-4.2s-.46-3.77-1.39-5.94c-.92-2.17-2.08-4.01-3.48-5.52-1.39-1.51-2.75-2.27-4.07-2.27-1.64,0-2.93.47-3.87,1.41s-1.41,2.35-1.41,4.22c0,1.76.45,3.73,1.36,5.92.91,2.19,2.06,4.03,3.45,5.54s2.74,2.27,4.03,2.27c1.67,0,2.98-.48,3.94-1.43h.01Z"/>
      <path class="st0" d="M345.18,65.67c1.36.88,2.05,2.05,2.05,3.52,0,1.26-.44,2.27-1.32,3.04-.88.76-2,1.23-3.34,1.41,1.67.09,3.09.62,4.27,1.61,1.17.98,1.76,2.27,1.76,3.85,0,2.05-.79,3.68-2.38,4.88s-3.73,1.8-6.42,1.8c-3.67,0-6.45-1.47-8.36-4.4-.06-.12-.05-.2.02-.24s.14-.02.2.07c1,1.53,2.87,2.29,5.63,2.29,2.05,0,3.61-.37,4.66-1.1,1.06-.73,1.58-2.08,1.58-4.05,0-1.5-.37-2.6-1.1-3.3-.73-.7-1.98-1.07-3.74-1.1l-1.5-.09c-.12,0-.18-.04-.18-.13s.04-.13.13-.13l1.41-.13c1.61-.18,2.76-.6,3.45-1.28.69-.67,1.03-1.77,1.03-3.3,0-2.55-1.38-3.83-4.14-3.83-1.76,0-3.18.64-4.27,1.91-1.09,1.28-1.97,3.22-2.64,5.83-.03.12-.09.16-.2.13-.1-.03-.14-.1-.11-.22l.75-4.36c.12-.64.47-1.28,1.06-1.89.59-.62,1.41-1.12,2.46-1.52,1.06-.4,2.29-.59,3.7-.59,2.32,0,4.16.44,5.52,1.32h.02Z"/>
      <path class="st0" d="M356.26,84.53c-1.63-.86-2.9-2.09-3.83-3.67-.92-1.58-1.39-3.39-1.39-5.41s.53-3.92,1.58-5.61c1.06-1.69,2.5-3.01,4.33-3.98s3.85-1.45,6.05-1.45c2.05,0,3.91.43,5.57,1.3s2.96,2.08,3.89,3.63c.94,1.56,1.41,3.33,1.41,5.32s-.54,3.94-1.61,5.65c-1.07,1.72-2.54,3.07-4.4,4.05s-3.91,1.47-6.14,1.47c-2.02,0-3.85-.43-5.48-1.3h.02ZM368.1,83.34c.95-.95,1.43-2.35,1.43-4.2s-.46-3.77-1.39-5.94c-.92-2.17-2.08-4.01-3.48-5.52-1.39-1.51-2.75-2.27-4.07-2.27-1.64,0-2.93.47-3.87,1.41s-1.41,2.35-1.41,4.22c0,1.76.45,3.73,1.36,5.92.91,2.19,2.06,4.03,3.45,5.54s2.74,2.27,4.03,2.27c1.67,0,2.98-.48,3.94-1.43h.01Z"/>
      <path class="st0" d="M376.13,85.12c-.15,0-.22-.06-.22-.18s.07-.18.22-.18c1,.03,1.72-.28,2.18-.92.45-.65.68-1.75.68-3.3v-10.87c0-1.55-.23-2.65-.68-3.3-.46-.64-1.17-.97-2.13-.97-.15,0-.22-.06-.22-.18s.07-.18.22-.18c.88.06,1.79.09,2.73.09,3.7-.09,7.05-.13,10.08-.13,2.32,0,4.12.39,5.41,1.17s1.94,1.97,1.94,3.59c0,1.06-.45,2-1.34,2.84-.9.84-2,1.33-3.32,1.47,1.7.09,3.12.59,4.27,1.5,1.14.91,1.72,2.16,1.72,3.74,0,1.85-.73,3.3-2.18,4.36-1.45,1.06-3.45,1.58-6.01,1.58l-10.56-.18-2.77.04h-.02ZM387.88,73.86c1.5-.18,2.57-.58,3.21-1.21.64-.63.97-1.61.97-2.93,0-1.44-.37-2.51-1.12-3.21s-1.69-1.07-2.84-1.1l-3.12-.13h-.13c-.29,0-.48.07-.57.22s-.13.41-.13.79v17.34c0,.53.08.89.24,1.08s.48.29.95.29l2.77-.04c1.5,0,2.66-.43,3.5-1.3.84-.86,1.25-2.15,1.25-3.85s-.37-3.06-1.12-3.98c-.75-.92-1.99-1.41-3.72-1.47l-1.5-.04c-.12,0-.18-.04-.18-.13s.04-.15.13-.18l1.41-.13v-.02Z"/>
      <path class="st0" d="M411.29,73.64c6.01-.09,9.02,1.75,9.02,5.5,0,1.94-.7,3.42-2.11,4.44-1.41,1.03-3.51,1.54-6.29,1.54h-9.24c-1.38,0-2.3.01-2.77.04-.15,0-.22-.06-.22-.18s.07-.18.22-.18c.97,0,1.69-.32,2.16-.97s.7-1.75.7-3.3v-10.91c0-1.55-.24-2.65-.7-3.3-.47-.65-1.19-.97-2.16-.97-.15,0-.22-.06-.22-.18s.07-.18.22-.18l2.77.04h5.24l2.73-.04c.15,0,.22.06.22.18s-.07.18-.22.18c-.97,0-1.68.32-2.13.97-.46.65-.68,1.75-.68,3.3v3.56c0,.32.13.48.4.48l3.08-.04s-.02.02-.02.02ZM410.58,84.77c1.41-.03,2.5-.54,3.28-1.54s1.17-2.33,1.17-4-.4-2.93-1.19-3.85-1.94-1.37-3.43-1.34l-2.2.04c-.26,0-.4.16-.4.48v9.06c0,.47.06.79.18.95.12.16.35.24.7.24l1.89-.04h0ZM430.95,84.99c0,.12-.07.18-.22.18-.47-.03-1.38-.04-2.73-.04h-5.24c-1.38,0-2.3.01-2.77.04-.12,0-.18-.06-.18-.18s.06-.18.18-.18c1,0,1.72-.32,2.18-.97s.68-1.75.68-3.3v-11.04c0-1.55-.23-2.65-.68-3.3-.46-.65-1.18-.97-2.18-.97-.12,0-.18-.06-.18-.18s.06-.18.18-.18l2.77.04h5.24l2.73-.04c.15,0,.22.06.22.18s-.07.18-.22.18c-.97,0-1.68.32-2.13.97-.46.65-.68,1.75-.68,3.3v11.04c0,1.56.23,2.66.68,3.3.45.65,1.17.97,2.13.97.15,0,.22.06.22.18Z"/>
      <path class="st0" d="M459.73,84.99c0,.12-.07.18-.22.18-.44-.03-1.35-.04-2.73-.04h-5.24c-1.38,0-2.29.01-2.73.04-.15,0-.22-.06-.22-.18s.07-.18.22-.18c.97,0,1.68-.32,2.13-.97s.68-1.75.68-3.3v-10.6l-10.52,10.56v.04c0,1.56.23,2.66.68,3.3.45.65,1.17.97,2.13.97.15,0,.22.06.22.18s-.07.18-.22.18c-.47-.03-1.38-.04-2.73-.04h-5.24c-1.38,0-2.3.01-2.77.04-.15,0-.22-.06-.22-.18s.07-.18.22-.18c.97,0,1.69-.32,2.16-.97s.7-1.75.7-3.3v-10.87c0-1.55-.24-2.66-.7-3.32-.47-.66-1.19-.99-2.16-.99-.15,0-.22-.06-.22-.18s.07-.18.22-.18c.94.06,1.86.09,2.77.09h5.24c.88,0,1.79-.03,2.73-.09.15,0,.22.06.22.18s-.07.18-.22.18c-.97,0-1.68.33-2.13.99-.46.66-.68,1.77-.68,3.32v10.25l10.52-10.56c-.03-1.47-.27-2.5-.73-3.1-.46-.6-1.15-.9-2.09-.9-.15,0-.22-.06-.22-.18s.07-.18.22-.18c.88.06,1.79.09,2.73.09h5.24c.94,0,1.85-.03,2.73-.09.15,0,.22.06.22.18s-.07.18-.22.18c-.97,0-1.68.33-2.13.99-.46.66-.68,1.77-.68,3.32v10.87c0,1.56.23,2.66.68,3.3.45.65,1.17.97,2.13.97.15,0,.22.06.22.18h.01ZM443.71,56.21c.26.09.4.24.4.44,0,1.11.31,2.14.92,3.08.62.94,1.51,1.41,2.68,1.41,1.29,0,2.21-.47,2.75-1.41s.81-1.95.81-3.04c0-.18.06-.26.18-.26.15,0,.22.09.22.26,0,1.47-.44,2.78-1.32,3.94s-2.26,1.74-4.14,1.74c-1.29,0-2.35-.3-3.19-.9s-1.45-1.34-1.85-2.22c-.4-.88-.59-1.76-.59-2.64,0-.18.1-.31.31-.4.21-.09.6-.13,1.19-.13.82,0,1.36.04,1.63.13h0Z"/>
    </g>
  </g>
  <path class="st0" d="M405.97,117.89c.32-.32.32-.83,0-1.15l-5.18-5.18c-.32-.32-.83-.32-1.15,0s-.32.83,0,1.15l4.6,4.6-4.6,4.6c-.32.32-.32.83,0,1.15.32.32.83.32,1.15,0l5.18-5.18h0ZM370.8,117.31v.81h34.59v-1.63h-34.59v.81h0Z"/>
</svg>